<?xml version="1.0" encoding="UTF-8"?>
<svg version="1.1" xmlns="http://www.w3.org/2000/svg" width="832" height="832">
<path d="M0 0 C274.56 0 549.12 0 832 0 C832 274.56 832 549.12 832 832 C557.44 832 282.88 832 0 832 C0 557.44 0 282.88 0 0 Z " fill="#FECE09" transform="translate(0,0)"/>
<path d="M0 0 C26.83067164 13.7007685 41.40268384 63.05194537 50.23242188 89.64648438 C56.82365132 110.55705828 62.65507434 134.90943764 62 157 C63.258125 157.20625 64.51625 157.4125 65.8125 157.625 C78.80700523 160.56906759 93.76304446 170.76048246 101 182 C105.00768273 190.60545372 106.18780686 198.60965715 106 208 C106.87011719 208.39638672 106.87011719 208.39638672 107.7578125 208.80078125 C119.32173989 214.98566924 126.58772305 226.53837385 130.6171875 238.6171875 C132.24353397 244.21213063 132.4987147 249.51216412 132.4375 255.3125 C132.42614014 256.82589966 132.42614014 256.82589966 132.41455078 258.36987305 C132.03297592 275.6897509 124.84945569 287.69913648 113 300 C112.41347656 300.52851563 111.82695313 301.05703125 111.22265625 301.6015625 C109.66429905 303.05959727 109.66429905 303.05959727 110.125 305.9375 C110.96176396 310.31656474 112.13584846 314.63079021 113.28125 318.9375 C114.71502722 325.04663773 115.15032863 331.01169656 115.1328125 337.26953125 C115.13376923 338.03174484 115.13472595 338.79395844 115.13571167 339.57926941 C115.13638773 341.17678918 115.1345738 342.77431179 115.13037109 344.37182617 C115.1249773 346.82281574 115.13035446 349.27362516 115.13671875 351.72460938 C115.13605859 353.2812504 115.13477873 354.83789132 115.1328125 356.39453125 C115.13483673 357.12783157 115.13686096 357.8611319 115.13894653 358.61665344 C115.11498679 363.77002642 115.11498679 363.77002642 114 366 C114.70898438 365.855625 115.41796875 365.71125 116.1484375 365.5625 C132.17960802 362.76771967 151.12848923 361.81041045 167 366 C168 367 168 367 168.0625 369.5625 C168.041875 370.366875 168.02125 371.17125 168 372 C166.66679321 372.02777514 165.33340287 372.04673341 164 372.0625 C162.88625 372.07990234 162.88625 372.07990234 161.75 372.09765625 C159 372 159 372 155.453125 371.5078125 C149.89726324 370.77688083 144.34565056 370.81586682 138.75 370.8125 C137.69425781 370.80025391 136.63851562 370.78800781 135.55078125 370.77539062 C128.18131067 370.76186039 121.22641978 371.56946715 114 373 C112.6025942 382.98498618 112.6025942 382.98498618 116.06640625 392.1015625 C118.33817754 396.72114763 117.33711443 401.79902983 116 406.5625 C115.67 407.366875 115.34 408.17125 115 409 C115.87180908 409.05933716 115.87180908 409.05933716 116.76123047 409.11987305 C123.74414197 409.69502527 130.33809414 411.10975585 137.125 412.8125 C138.76009521 413.21734619 138.76009521 413.21734619 140.42822266 413.63037109 C142.60695448 414.16998611 144.78519113 414.71160493 146.96289062 415.25537109 C149.66208994 415.91715228 152.36521698 416.5419674 155.078125 417.14453125 C156.18389893 417.39722778 156.18389893 417.39722778 157.31201172 417.6550293 C159.23485964 418.09307453 161.16031105 418.51964771 163.0859375 418.9453125 C166.2920276 420.10569364 167.32053107 421.08811502 169 424 C168.34 424.99 167.68 425.98 167 427 C166.11183594 426.76925781 165.22367188 426.53851562 164.30859375 426.30078125 C135.83955633 416.57930188 135.83955633 416.57930188 107.90234375 417.0859375 C106.56062815 417.95366385 105.24210286 418.85899346 103.95703125 419.80859375 C101.66162927 421.20599416 99.64030753 421.60326985 97 422 C97.3609375 422.78761719 97.721875 423.57523438 98.09375 424.38671875 C101.86092089 433.22910599 103.98289569 441.30179734 101.18359375 450.7578125 C97.27092284 459.67379429 90.42634593 464.82698584 81.9375 469.125 C76.39869827 472.22924027 74.01089478 475.51465034 71.1394043 481.11181641 C58.53360879 505.65910404 36.753661 528.36484747 15 545 C13.49953125 546.19109375 13.49953125 546.19109375 11.96875 547.40625 C-1.52138553 558.06964445 -15.8275998 566.93499318 -31 575 C-31.65548828 575.35304199 -32.31097656 575.70608398 -32.98632812 576.06982422 C-75.69187489 598.94466709 -125.21471228 609.32967281 -173.4375 609.125 C-174.13819611 609.12278442 -174.83889221 609.12056885 -175.56082153 609.11828613 C-247.51868205 608.85325173 -323.07681009 594.1651034 -386 558 C-386.66257812 557.62053223 -387.32515625 557.24106445 -388.0078125 556.85009766 C-402.67444067 548.33821523 -415.6933188 537.63318123 -428 526 C-428.89074219 525.16210938 -429.78148437 524.32421875 -430.69921875 523.4609375 C-456.64246467 498.3499017 -474.71759566 463.91963955 -483 429 C-483.21108398 428.12794922 -483.42216797 427.25589844 -483.63964844 426.35742188 C-499.32282329 360.81510819 -490.48816835 290.91311262 -455 233 C-451.43635493 227.26447112 -447.74547278 221.61820917 -444 216 C-443.87469122 212.96359995 -443.86470204 210.02028377 -443.9453125 206.98828125 C-443.97422423 205.11256637 -444.00192443 203.23683251 -444.02856445 201.36108398 C-444.04521149 200.37437714 -444.06185852 199.38767029 -444.07901001 198.37106323 C-444.3829628 178.15669004 -443.28166096 158.95961746 -440 139 C-439.81808105 137.81245117 -439.63616211 136.62490234 -439.44873047 135.40136719 C-433.61504285 97.33381851 -422.55926717 45.75573073 -391.859375 19.2421875 C-387.71796675 16.47544838 -382.83317918 16.45149776 -378 17 C-345.84973194 24.51129775 -317.2366727 49.69040894 -293.69140625 71.52734375 C-290.93190392 74.06256142 -288.11206184 76.49771795 -285.22265625 78.8828125 C-283.27555179 80.7375236 -281.67820852 82.59201178 -279.99609375 84.6796875 C-276.72648038 88.59816252 -273.46936043 92.42991777 -269 95 C-263.84134992 95.32276954 -259.60797 93.5905025 -254.82666016 91.88916016 C-248.95288485 90.04149306 -242.86023407 89.05014774 -236.8125 87.9375 C-236.12897461 87.80884552 -235.44544922 87.68019104 -234.74121094 87.54763794 C-208.10413342 82.5504567 -181.02115932 80.80421893 -153.94897461 80.86962891 C-151.30381603 80.87501769 -148.65882557 80.8696263 -146.01367188 80.86328125 C-137.21474661 80.86020846 -128.51027031 81.03384141 -119.73901367 81.78564453 C-118.50513916 81.85638184 -117.27126465 81.92711914 -116 82 C-115.09003265 82.11132767 -114.18006531 82.22265533 -113.24252319 82.33735657 C-108.7399657 82.68809886 -105.3691674 82.81949539 -101.41801453 80.45458984 C-98.81998698 78.18962509 -96.48191011 75.80676733 -94.140625 73.27734375 C-93.26653992 72.38390762 -92.39245483 71.4904715 -91.49188232 70.56996155 C-89.18399535 68.20102503 -86.9042843 65.80901936 -84.6362915 63.40197754 C-81.44478278 60.03046957 -78.19819451 56.71172642 -74.965271 53.38002014 C-73.25262124 51.60857696 -71.54698251 49.83031858 -69.84967041 48.04417419 C-65.11536121 43.07477234 -60.25955215 38.41022278 -55 34 C-54.23768066 33.35554932 -53.47536133 32.71109863 -52.68994141 32.04711914 C-52.08327637 31.54817139 -51.47661133 31.04922363 -50.8515625 30.53515625 C-49.81672729 29.6829248 -49.81672729 29.6829248 -48.76098633 28.81347656 C-48.05611084 28.2356543 -47.35123535 27.65783203 -46.625 27.0625 C-45.50484497 26.14355957 -45.50484497 26.14355957 -44.36206055 25.20605469 C-42.89262322 24.00191692 -41.422518 22.7985936 -39.95166016 21.59619141 C-38.35450954 20.28994037 -36.76075114 18.97954266 -35.16796875 17.66796875 C-30.49067858 13.85942899 -25.68890706 10.23561046 -20.8125 6.6875 C-20.24184814 6.26629883 -19.67119629 5.84509766 -19.08325195 5.41113281 C-13.00524322 1.04923671 -7.65802314 -2.08855177 0 0 Z " fill="#FEC900" transform="translate(580,90)"/>
<path d="M0 0 C26.83067164 13.7007685 41.40268384 63.05194537 50.23242188 89.64648438 C56.82365132 110.55705828 62.65507434 134.90943764 62 157 C63.258125 157.20625 64.51625 157.4125 65.8125 157.625 C78.80700523 160.56906759 93.76304446 170.76048246 101 182 C105.00768273 190.60545372 106.18780686 198.60965715 106 208 C106.87011719 208.39638672 106.87011719 208.39638672 107.7578125 208.80078125 C119.32173989 214.98566924 126.58772305 226.53837385 130.6171875 238.6171875 C132.24353397 244.21213063 132.4987147 249.51216412 132.4375 255.3125 C132.42614014 256.82589966 132.42614014 256.82589966 132.41455078 258.36987305 C132.03297592 275.6897509 124.84945569 287.69913648 113 300 C112.41347656 300.52851563 111.82695313 301.05703125 111.22265625 301.6015625 C109.66429905 303.05959727 109.66429905 303.05959727 110.125 305.9375 C110.96176396 310.31656474 112.13584846 314.63079021 113.28125 318.9375 C114.71502722 325.04663773 115.15032863 331.01169656 115.1328125 337.26953125 C115.13376923 338.03174484 115.13472595 338.79395844 115.13571167 339.57926941 C115.13638773 341.17678918 115.1345738 342.77431179 115.13037109 344.37182617 C115.1249773 346.82281574 115.13035446 349.27362516 115.13671875 351.72460938 C115.13605859 353.2812504 115.13477873 354.83789132 115.1328125 356.39453125 C115.13483673 357.12783157 115.13686096 357.8611319 115.13894653 358.61665344 C115.11498679 363.77002642 115.11498679 363.77002642 114 366 C114.70898438 365.855625 115.41796875 365.71125 116.1484375 365.5625 C132.17960802 362.76771967 151.12848923 361.81041045 167 366 C168 367 168 367 168.0625 369.5625 C168.041875 370.366875 168.02125 371.17125 168 372 C166.66679321 372.02777514 165.33340287 372.04673341 164 372.0625 C162.88625 372.07990234 162.88625 372.07990234 161.75 372.09765625 C159 372 159 372 155.453125 371.5078125 C149.89726324 370.77688083 144.34565056 370.81586682 138.75 370.8125 C137.69425781 370.80025391 136.63851562 370.78800781 135.55078125 370.77539062 C128.18131067 370.76186039 121.22641978 371.56946715 114 373 C112.6025942 382.98498618 112.6025942 382.98498618 116.06640625 392.1015625 C118.33817754 396.72114763 117.33711443 401.79902983 116 406.5625 C115.67 407.366875 115.34 408.17125 115 409 C115.87180908 409.05933716 115.87180908 409.05933716 116.76123047 409.11987305 C123.74414197 409.69502527 130.33809414 411.10975585 137.125 412.8125 C138.76009521 413.21734619 138.76009521 413.21734619 140.42822266 413.63037109 C142.60695448 414.16998611 144.78519113 414.71160493 146.96289062 415.25537109 C149.66208994 415.91715228 152.36521698 416.5419674 155.078125 417.14453125 C156.18389893 417.39722778 156.18389893 417.39722778 157.31201172 417.6550293 C159.23485964 418.09307453 161.16031105 418.51964771 163.0859375 418.9453125 C166.2920276 420.10569364 167.32053107 421.08811502 169 424 C168.34 424.99 167.68 425.98 167 427 C166.11183594 426.76925781 165.22367188 426.53851562 164.30859375 426.30078125 C135.83955633 416.57930188 135.83955633 416.57930188 107.90234375 417.0859375 C106.56062815 417.95366385 105.24210286 418.85899346 103.95703125 419.80859375 C101.66162927 421.20599416 99.64030753 421.60326985 97 422 C97.3609375 422.78761719 97.721875 423.57523438 98.09375 424.38671875 C101.86092089 433.22910599 103.98289569 441.30179734 101.18359375 450.7578125 C97.27092284 459.67379429 90.42634593 464.82698584 81.9375 469.125 C76.39869827 472.22924027 74.01089478 475.51465034 71.1394043 481.11181641 C58.53360879 505.65910404 36.753661 528.36484747 15 545 C13.49953125 546.19109375 13.49953125 546.19109375 11.96875 547.40625 C-1.52138553 558.06964445 -15.8275998 566.93499318 -31 575 C-31.65548828 575.35304199 -32.31097656 575.70608398 -32.98632812 576.06982422 C-75.69187489 598.94466709 -125.21471228 609.32967281 -173.4375 609.125 C-174.13819611 609.12278442 -174.83889221 609.12056885 -175.56082153 609.11828613 C-247.51868205 608.85325173 -323.07681009 594.1651034 -386 558 C-386.66257812 557.62053223 -387.32515625 557.24106445 -388.0078125 556.85009766 C-402.67444067 548.33821523 -415.6933188 537.63318123 -428 526 C-428.89074219 525.16210938 -429.78148437 524.32421875 -430.69921875 523.4609375 C-456.64246467 498.3499017 -474.71759566 463.91963955 -483 429 C-483.21108398 428.12794922 -483.42216797 427.25589844 -483.63964844 426.35742188 C-499.32282329 360.81510819 -490.48816835 290.91311262 -455 233 C-451.43635493 227.26447112 -447.74547278 221.61820917 -444 216 C-443.87469122 212.96359995 -443.86470204 210.02028377 -443.9453125 206.98828125 C-443.97422423 205.11256637 -444.00192443 203.23683251 -444.02856445 201.36108398 C-444.04521149 200.37437714 -444.06185852 199.38767029 -444.07901001 198.37106323 C-444.3829628 178.15669004 -443.28166096 158.95961746 -440 139 C-439.81808105 137.81245117 -439.63616211 136.62490234 -439.44873047 135.40136719 C-433.61504285 97.33381851 -422.55926717 45.75573073 -391.859375 19.2421875 C-387.71796675 16.47544838 -382.83317918 16.45149776 -378 17 C-345.84973194 24.51129775 -317.2366727 49.69040894 -293.69140625 71.52734375 C-290.93190392 74.06256142 -288.11206184 76.49771795 -285.22265625 78.8828125 C-283.27555179 80.7375236 -281.67820852 82.59201178 -279.99609375 84.6796875 C-276.72648038 88.59816252 -273.46936043 92.42991777 -269 95 C-263.84134992 95.32276954 -259.60797 93.5905025 -254.82666016 91.88916016 C-248.95288485 90.04149306 -242.86023407 89.05014774 -236.8125 87.9375 C-236.12897461 87.80884552 -235.44544922 87.68019104 -234.74121094 87.54763794 C-208.10413342 82.5504567 -181.02115932 80.80421893 -153.94897461 80.86962891 C-151.30381603 80.87501769 -148.65882557 80.8696263 -146.01367188 80.86328125 C-137.21474661 80.86020846 -128.51027031 81.03384141 -119.73901367 81.78564453 C-118.50513916 81.85638184 -117.27126465 81.92711914 -116 82 C-115.09003265 82.11132767 -114.18006531 82.22265533 -113.24252319 82.33735657 C-108.7399657 82.68809886 -105.3691674 82.81949539 -101.41801453 80.45458984 C-98.81998698 78.18962509 -96.48191011 75.80676733 -94.140625 73.27734375 C-93.26653992 72.38390762 -92.39245483 71.4904715 -91.49188232 70.56996155 C-89.18399535 68.20102503 -86.9042843 65.80901936 -84.6362915 63.40197754 C-81.44478278 60.03046957 -78.19819451 56.71172642 -74.965271 53.38002014 C-73.25262124 51.60857696 -71.54698251 49.83031858 -69.84967041 48.04417419 C-65.11536121 43.07477234 -60.25955215 38.41022278 -55 34 C-54.23768066 33.35554932 -53.47536133 32.71109863 -52.68994141 32.04711914 C-52.08327637 31.54817139 -51.47661133 31.04922363 -50.8515625 30.53515625 C-49.81672729 29.6829248 -49.81672729 29.6829248 -48.76098633 28.81347656 C-48.05611084 28.2356543 -47.35123535 27.65783203 -46.625 27.0625 C-45.50484497 26.14355957 -45.50484497 26.14355957 -44.36206055 25.20605469 C-42.89262322 24.00191692 -41.422518 22.7985936 -39.95166016 21.59619141 C-38.35450954 20.28994037 -36.76075114 18.97954266 -35.16796875 17.66796875 C-30.49067858 13.85942899 -25.68890706 10.23561046 -20.8125 6.6875 C-20.24184814 6.26629883 -19.67119629 5.84509766 -19.08325195 5.41113281 C-13.00524322 1.04923671 -7.65802314 -2.08855177 0 0 Z M-395.72192383 31.3359375 C-419.94560406 62.87530798 -429.5902857 106.53965714 -435 145 C-435.16371094 146.16289551 -435.32742188 147.32579102 -435.49609375 148.52392578 C-438.21347738 168.71060521 -438.35148086 188.67719644 -438 209 C-436.89056894 208.0495446 -435.78120753 207.0990079 -434.671875 206.1484375 C-433.7452002 205.35445557 -433.7452002 205.35445557 -432.79980469 204.54443359 C-431.28069758 203.2408699 -429.76496321 201.93337731 -428.25 200.625 C-426 199 -426 199 -423 199 C-423.3430168 201.90604574 -423.60492794 203.57548121 -425.62792969 205.74926758 C-426.63968262 206.5327356 -426.63968262 206.5327356 -427.671875 207.33203125 C-431.81458147 210.75262303 -435.03414101 214.39968801 -438.25 218.6875 C-438.80083252 219.41807617 -439.35166504 220.14865234 -439.91918945 220.90136719 C-464.75303169 254.50489268 -478.26472638 293.90507555 -484 335 C-484.26369385 336.8557666 -484.26369385 336.8557666 -484.53271484 338.74902344 C-485.08686973 343.25833534 -485.19616235 347.73394348 -485.23828125 352.2734375 C-485.2480751 353.14636444 -485.25786896 354.01929138 -485.26795959 354.91867065 C-485.44040787 374.28803473 -485.29458988 393.01356296 -481 412 C-480.78037598 412.97727051 -480.56075195 413.95454102 -480.33447266 414.96142578 C-478.77266784 421.70714044 -476.96269472 428.36077573 -475 435 C-474.74379883 435.87962402 -474.48759766 436.75924805 -474.22363281 437.66552734 C-466.18229386 464.81135224 -452.99458781 489.95520271 -434 511 C-432.76952054 512.43637643 -431.54017782 513.87372826 -430.3125 515.3125 C-422.63390795 523.96443471 -414.20432649 531.04787494 -405 538 C-404.45102051 538.42039551 -403.90204102 538.84079102 -403.33642578 539.27392578 C-353.68972238 577.11357657 -286.09802352 594.47830086 -225 601 C-223.59476074 601.15879639 -223.59476074 601.15879639 -222.16113281 601.32080078 C-206.54329855 603.03349689 -190.94443295 603.20755049 -175.25 603.25 C-174.26369598 603.25526703 -173.27739197 603.26053406 -172.26119995 603.26596069 C-154.47333448 603.33938097 -136.56877172 602.65818809 -119.0625 599.25 C-118.17248291 599.08153564 -117.28246582 598.91307129 -116.36547852 598.73950195 C-53.26128413 586.36559014 10.43035801 554.12130262 50 502 C50.65693848 501.14172607 50.65693848 501.14172607 51.32714844 500.26611328 C57.51194828 492.15416567 63.10714699 483.96744732 68 475 C67.08347656 475.16435547 67.08347656 475.16435547 66.1484375 475.33203125 C63.45872872 475.79799488 60.76614512 476.24134166 58.0703125 476.67041016 C56.65312816 476.89602323 55.23648102 477.12502965 53.8203125 477.35693359 C-3.05179179 486.51248069 -63.30735186 483.60464753 -120.390625 477.6640625 C-151.02491913 474.50669488 -182.96822727 474.56083728 -213.5078125 478.578125 C-223.02375594 479.81895709 -232.3973005 480.21037896 -242 480.25 C-243.22944336 480.25918457 -244.45888672 480.26836914 -245.72558594 480.27783203 C-255.73389408 480.24377163 -264.32451919 479.26943769 -273.3125 474.75 C-274.46363281 474.18796875 -275.61476563 473.6259375 -276.80078125 473.046875 C-284.15011157 468.34473936 -287.73095162 461.20561985 -290 453 C-291.34891701 442.57556937 -289.59089296 433.91485651 -286.09375 424.1328125 C-284.89012793 421.23833717 -284.89012793 421.23833717 -285 419 C-314.30859166 419.60467971 -344.55256579 421.40726845 -373 429 C-373 427.35 -373 425.7 -373 424 C-354.70971181 419.3982289 -336.20377257 417.4431426 -317.4375 415.875 C-316.4158374 415.78710205 -315.3941748 415.6992041 -314.34155273 415.60864258 C-309.01145876 415.18615307 -303.75766092 414.96949882 -298.41015625 415.04296875 C-287.5117967 415.56295097 -287.5117967 415.56295097 -277.74609375 411.703125 C-275.51503488 408.9095826 -273.75316564 406.1094704 -272 403 C-257.13716145 385.80791063 -224.89571256 381.06027372 -204 377 C-202.49638916 376.70198486 -202.49638916 376.70198486 -200.96240234 376.39794922 C-189.21798444 374.38854297 -177.37764404 374.6950223 -165.5 374.75 C-164.35870636 374.75243713 -163.21741272 374.75487427 -162.04153442 374.75738525 C-146.98996361 374.79495867 -131.96817724 375.06441481 -116.9375 375.875 C-116.20063965 375.91411499 -115.4637793 375.95322998 -114.70458984 375.99353027 C-106.63771669 376.43678008 -98.62975387 377.1294146 -90.6015625 378.03125 C-81.20940374 379.06166248 -71.88510391 379.56197556 -62.4375 379.625 C-61.13309464 379.63634476 -61.13309464 379.63634476 -59.80233765 379.6479187 C-35.1902242 379.73794266 -10.83524365 376.07294563 13.51171875 372.84765625 C28.61359391 370.84777785 43.37983182 369.82078542 58.625 369.8125 C59.81867187 369.80025391 61.01234375 369.78800781 62.2421875 369.77539062 C69.64308901 369.76337617 76.69534948 370.37049598 83.99731445 371.58740234 C90.56149121 372.48938289 96.39240558 370.93623197 102.77734375 369.44921875 C104.52712524 369.04255981 104.52712524 369.04255981 106.31225586 368.62768555 C107.19921143 368.42054932 108.08616699 368.21341309 109 368 C109.07504601 362.41734645 109.12901841 356.8349967 109.16479492 351.25195312 C109.17973424 349.35899734 109.20009315 347.46607525 109.22631836 345.57324219 C109.41080267 331.89969918 108.47434212 320.05006327 104 307 C103.1028125 307.50789063 102.205625 308.01578125 101.28125 308.5390625 C60.52448199 331.20998014 8.65310631 334.040583 -36 322 C-60.1199067 314.93311022 -85.27857135 303.74842161 -98.0390625 280.8359375 C-98.35617187 280.23007812 -98.67328125 279.62421875 -99 279 C-101.37466762 281.37466762 -102.04086366 283.37236734 -103.25 286.5 C-110.75232894 304.77602225 -123.5017678 317.83256778 -141.625 325.6875 C-159.25663163 332.82220795 -179.06341977 336.0785022 -198 337 C-199.13381104 337.05776611 -199.13381104 337.05776611 -200.29052734 337.11669922 C-237.9473379 338.73504836 -279.5243239 329.40260655 -308.1875 304.06640625 C-317.9872907 294.84198205 -324.11458931 282.27076395 -325.2734375 268.828125 C-325.78805149 250.69787815 -319.83497497 235.59656808 -307.3984375 222.375 C-282.9295385 198.14521077 -244.85385556 190.71808682 -211.52734375 190.8215332 C-183.87879753 191.10417708 -156.50415406 198.21750168 -132 211 C-133.96515064 198.11734581 -140.85578109 188.01632774 -150 179 C-150.61359375 178.37609375 -151.2271875 177.7521875 -151.859375 177.109375 C-166.05363611 163.64302472 -185.46173569 157.9507803 -204.66015625 157.76171875 C-205.47893753 157.75197021 -206.29771881 157.74222168 -207.14131165 157.73217773 C-224.46690097 157.56828329 -241.12886415 157.57221667 -258 162 C-259.2075293 162.29680664 -259.2075293 162.29680664 -260.43945312 162.59960938 C-270.00815133 164.95556774 -278.98607378 167.98802128 -288 172 C-289.91318111 172.77944415 -291.82968162 173.55080947 -293.75 174.3125 C-294.56984375 174.63863281 -295.3896875 174.96476563 -296.234375 175.30078125 C-296.81703125 175.53152344 -297.3996875 175.76226562 -298 176 C-298.33 174.35 -298.66 172.7 -299 171 C-298.11699219 170.71640625 -297.23398437 170.4328125 -296.32421875 170.140625 C-293.39951087 169.13708246 -290.63668782 168.00148648 -287.8125 166.75 C-252.68809295 152.1327437 -208.10815583 145.22705856 -171.66333008 159.27709961 C-152.71054984 167.16103849 -137.60220749 181.26069089 -129.5625 200.25 C-128.32521355 203.54225787 -127.81618949 206.51605667 -127.4375 210 C-126.39231005 216.02632043 -122.40108817 218.71960404 -117.890625 222.50390625 C-110.27256456 229.08220439 -105.67200657 236.71406031 -102 246 C-99.62037143 243.62037143 -98.99914635 241.64279035 -97.8125 238.5 C-89.60895233 218.5499232 -72.63995584 205.69471155 -53.3137207 197.4609375 C-10.24517475 179.93106713 41.75202254 179.51547794 84.99609375 196.94140625 C90.09249242 199.10257247 95.0613033 201.50016587 100 204 C100.72301783 194.23925934 97.23756342 186.54941685 91.0234375 179.08984375 C72.87987089 160.3508319 40.85427091 155.18707327 15.96850586 154.69750977 C-12.3062853 154.59094975 -41.10933979 160.01139783 -67.25292969 170.76489258 C-72.71445779 173 -72.71445779 173 -76 173 C-76 172.01 -76 171.02 -76 170 C-51.62710295 159.3236114 -26.3175401 151.22183447 0.53125 150.68359375 C1.40777222 150.66281265 2.28429443 150.64203156 3.18737793 150.62062073 C5.95818042 150.55579117 8.72906901 150.49655342 11.5 150.4375 C13.39063352 150.39425127 15.28125868 150.35063507 17.171875 150.30664062 C21.78116416 150.20017915 26.39053899 150.09872881 31 150 C30.0362644 148.87520112 29.0724667 147.75045545 28.10864258 146.62573242 C27.57193436 145.999384 27.03522614 145.37303558 26.48225403 144.72770691 C8.80138125 124.11898163 -17.90377027 112.00482757 -43 103 C-43.65919434 102.7623291 -44.31838867 102.5246582 -44.99755859 102.27978516 C-62.44235583 96.12518494 -80.87260239 92.43238624 -99.125 89.6875 C-100.17727783 89.52822021 -101.22955566 89.36894043 -102.3137207 89.20483398 C-140.00309049 83.87184839 -179.401797 86.05319206 -217 91 C-217.705802 91.09194641 -218.411604 91.18389282 -219.13879395 91.27862549 C-238.56951102 93.83885831 -257.26985689 98.26428879 -276 104 C-276.90331055 104.27005859 -277.80662109 104.54011719 -278.73730469 104.81835938 C-300.48106306 111.41354223 -321.57745261 122.31335151 -341 134 C-341.92425781 134.55429688 -342.84851563 135.10859375 -343.80078125 135.6796875 C-374.79177658 154.02338208 -374.79177658 154.02338208 -398 180 C-401.875 179.125 -401.875 179.125 -403 178 C-403.12666375 175.63733731 -403.18827219 173.30567378 -403.203125 170.94140625 C-403.21013931 170.21435486 -403.21715363 169.48730347 -403.22438049 168.73822021 C-403.24209655 166.34625208 -403.24825172 163.95453172 -403.25 161.5625 C-403.25067474 160.74623138 -403.25134949 159.92996277 -403.25204468 159.08895874 C-403.23297447 144.55514203 -402.34321272 130.36332244 -400 116 C-399.82839355 114.94248535 -399.65678711 113.8849707 -399.47998047 112.79541016 C-392.13394418 69.17216518 -392.13394418 69.17216518 -379 58 C-370.0604193 55.56193254 -362.48944162 58.96687405 -354.68359375 63.3671875 C-345.2425337 68.90677504 -336.48473319 75.09487139 -328 82 C-327.0925 82.72703125 -326.185 83.4540625 -325.25 84.203125 C-319.32239235 88.99345909 -313.53088744 93.93893744 -307.76977539 98.92724609 C-306.18737337 100.2939588 -304.59509765 101.64815407 -303 103 C-302.28328125 103.62003906 -301.5665625 104.24007812 -300.828125 104.87890625 C-298.80985809 106.37510801 -298.80985809 106.37510801 -295.1875 105.5625 C-288.24192269 103.73287645 -281.61189711 100.77020195 -275 98 C-279.0357642 93.16952039 -283.23409734 88.57278205 -287.6875 84.125 C-288.2961792 83.51640137 -288.9048584 82.90780273 -289.53198242 82.28076172 C-293.98701083 77.88109338 -298.5983631 73.87199241 -303.515625 69.9921875 C-305.79874306 68.16138528 -307.92503542 66.24662389 -310.0625 64.25 C-325.21202932 50.68807677 -343.25712234 39.53243665 -361.125 29.9375 C-362.11802124 29.40044434 -362.11802124 29.40044434 -363.13110352 28.85253906 C-375.41528552 22.43748342 -385.88527105 19.29688507 -395.72192383 31.3359375 Z " fill="#060401" transform="translate(580,90)"/>
<path d="M0 0 C4.47286858 4.39517608 6.03851988 8.31114752 6.25 14.5625 C6.08903498 19.13143024 5.71739958 22.33185055 2.875 26.0625 C-14.14829995 41.25389628 -49.04299579 38.76849346 -70 39.6875 C-72.60030298 39.80898823 -75.20056389 39.93138024 -77.80078125 40.0546875 C-83.87734843 40.34011792 -89.95402578 40.62039353 -96.03187561 40.87722778 C-98.96554529 41.00434552 -101.8966227 41.15993774 -104.82835388 41.32565308 C-121.7628287 42.23470653 -138.67846818 42.15112252 -155.63048744 42.07653427 C-161.04785141 42.05298884 -166.46521234 42.04002621 -171.88261414 42.02883911 C-187.27050657 41.99580253 -202.65834214 41.95424413 -218.04614258 41.89111328 C-226.58537829 41.85616848 -235.12457255 41.8326384 -243.66387242 41.82090485 C-248.14941868 41.81425508 -252.63478719 41.80230447 -257.12026405 41.77587509 C-274.76385108 41.67473656 -292.26828866 41.86888866 -309.85229492 43.44189453 C-310.55040051 43.50383932 -311.2485061 43.56578411 -311.9677664 43.62960601 C-322.88176469 44.62468738 -333.51837697 46.30589744 -344.125 49.0625 C-344.125 50.3825 -344.125 51.7025 -344.125 53.0625 C-338.6524298 52.61392867 -333.26933413 51.94801837 -327.85723495 51.03714657 C-305.57028811 47.33665535 -283.55797815 46.81083866 -261.02261448 46.95850682 C-256.82929341 46.982779 -252.63594024 46.99228241 -248.44256592 47.00279236 C-235.11903362 47.03878799 -221.79561141 47.09647171 -208.47221118 47.16549832 C-169.75307128 47.3648371 -131.10267525 47.29689634 -92.41015625 45.6953125 C-91.63986241 45.66394675 -90.86956858 45.63258101 -90.0759325 45.60026479 C-67.6666281 44.6850491 -45.34899227 43.2885839 -23.09838867 40.38208008 C-20.39351438 40.09135995 -17.84020111 39.8928188 -15.125 40.0625 C-13.578125 41.48828125 -13.578125 41.48828125 -12.375 43.375 C-11.76398438 44.29732422 -11.76398438 44.29732422 -11.140625 45.23828125 C-7.72791999 51.36802447 -8.20048437 59.79587809 -10.0625 66.375 C-22.47151592 82.54432377 -41.9586619 86.51599106 -61.125 89.0625 C-72.78956607 90.3861387 -84.50704234 91.17751883 -96.21942139 91.93682861 C-98.7005859 92.10045943 -101.18026406 92.28305892 -103.66015625 92.46484375 C-143.53568075 95.19557574 -185.43294421 92.99865905 -225.0625 88 C-260.17587757 83.61663429 -295.56463946 86.11299154 -330.57470703 89.98999023 C-346.83984224 91.77986097 -367.01729237 93.1784919 -381.125 83.0625 C-386.5620602 78.2063223 -390.10660445 72.21921841 -390.55859375 64.86328125 C-390.58209145 63.36737147 -390.58267238 61.87095831 -390.5625 60.375 C-390.55492676 59.58480469 -390.54735352 58.79460937 -390.53955078 57.98046875 C-390.15402303 44.15775118 -383.82560038 32.23606525 -374.49609375 22.21875 C-359.62448215 8.69464851 -338.14181901 2.78460622 -319.0625 -1.5625 C-318.18392334 -1.76891113 -317.30534668 -1.97532227 -316.40014648 -2.18798828 C-300.08595054 -5.75667335 -283.44939042 -6.28697261 -266.8125 -6.1875 C-265.91234161 -6.18506287 -265.01218323 -6.18262573 -264.08474731 -6.18011475 C-242.91559531 -6.1134608 -221.89275762 -5.02911392 -200.87890625 -2.37890625 C-194.59144523 -1.63958981 -188.33996566 -1.23508698 -182.01611328 -1.03417969 C-179.96448748 -0.96557271 -177.91335934 -0.88127958 -175.86279297 -0.78613281 C-148.92460121 0.36579313 -122.62243348 -3.13829115 -95.94480896 -6.57592773 C-87.31678065 -7.6804187 -78.68216774 -8.70001591 -70.03515625 -9.64453125 C-68.34641136 -9.83309441 -68.34641136 -9.83309441 -66.62355042 -10.02546692 C-45.80729903 -12.25266522 -17.50129301 -13.89915578 0 0 Z " fill="#9E511C" transform="translate(685.125,474.9375)"/>
<path d="M0 0 C0.85774521 -0.00974854 1.71549042 -0.01949707 2.59922791 -0.02954102 C20.6240078 -0.19241707 38.17259427 -0.32885149 55.7421875 4.23828125 C56.89630127 4.52711182 56.89630127 4.52711182 58.07373047 4.82177734 C63.03788042 6.08901716 67.90022343 7.56586832 72.7421875 9.23828125 C73.3805957 9.45709961 74.01900391 9.67591797 74.67675781 9.90136719 C93.24621546 16.41912385 108.7529869 25.89703947 118.078125 43.765625 C123.93856818 55.99551699 124.54938716 69.36133242 120.7734375 82.40234375 C114.10350072 100.7446699 99.04871824 113.16620286 81.81347656 121.31542969 C43.38004167 138.43923731 -11.03224359 139.1464414 -50.2578125 124.23828125 C-69.51739195 116.69312097 -89.51681037 106.15280012 -98.6328125 86.48828125 C-103.18943257 75.79012977 -102.79265333 61.71343819 -98.5625 50.9921875 C-88.06812595 28.84088898 -68.48622481 16.7277563 -46.25390625 8.27246094 C-31.3017072 3.11132052 -15.80162799 0.14971902 0 0 Z " fill="#FEFEFE" transform="translate(584.2578125,279.76171875)"/>
<path d="M0 0 C0.71530884 -0.00067474 1.43061768 -0.00134949 2.16760254 -0.00204468 C13.26390171 0.01456841 23.80845292 0.67721583 34.625 3.25 C35.43855957 3.43224121 36.25211914 3.61448242 37.09033203 3.80224609 C56.37161752 8.13483456 74.29321918 14.33743509 89.625 27.25 C90.22699219 27.70761719 90.82898438 28.16523438 91.44921875 28.63671875 C101.33201328 36.38749469 109.99121858 49.61088539 111.625 62.25 C112.92038107 78.28034078 108.06171334 93.15499325 98.0078125 105.62109375 C77.72076748 129.30141017 44.94127959 134.94628677 15.30908203 137.4453125 C11.05167836 137.69568664 6.87598704 137.54177841 2.625 137.25 C1.86654785 137.20601074 1.1080957 137.16202148 0.32666016 137.11669922 C-29.87662879 135.27813534 -64.26724879 127.81669266 -87.375 107.25 C-88.08398438 106.62351562 -88.79296875 105.99703125 -89.5234375 105.3515625 C-100.00543904 95.51213577 -105.26566574 84.54538455 -105.77514648 70.26147461 C-105.89944439 61.90426833 -105.30312152 54.78807744 -101.375 47.25 C-100.95089844 46.4146875 -100.52679688 45.579375 -100.08984375 44.71875 C-87.84514872 22.61690493 -66.00961913 12.1046892 -42.85009766 4.94580078 C-36.45905098 3.14914631 -29.94585152 2.12881759 -23.375 1.25 C-22.21226562 1.06695312 -21.04953125 0.88390625 -19.8515625 0.6953125 C-13.27333678 -0.10461252 -6.61770387 0.00560822 0 0 Z " fill="#FEFEFE" transform="translate(365.375,285.75)"/>
<path d="M0 0 C2.04970764 1.61819024 3.38189883 2.99446616 5 5 C5.82564453 5.97453125 5.82564453 5.97453125 6.66796875 6.96875 C13.6987513 15.89856866 18.51422653 26.1593585 23.61181641 36.26318359 C24.7971989 38.60017581 26.00481294 40.92227297 27.23046875 43.23828125 C36.16560512 60.28437597 42.65236457 78.54317581 48 97 C48.22139648 97.7513623 48.44279297 98.50272461 48.67089844 99.27685547 C51.4929342 108.95921458 53.61677821 118.68301211 55.3125 128.625 C55.48410645 129.62039795 55.65571289 130.6157959 55.83251953 131.64135742 C56.78042376 137.50719441 57.16536641 143.05905876 57 149 C54.76914933 148.74340689 52.54032877 148.46912686 50.3125 148.1875 C48.45044922 147.96126953 48.45044922 147.96126953 46.55078125 147.73046875 C40.79447705 146.54627856 37.8478373 144.25468102 34.4375 139.5625 C31.9745385 136.18657148 31.9745385 136.18657148 28.90234375 133.39453125 C25.80197442 129.49201297 25.75943106 124.97057664 25.125 120.125 C23.32802425 108.09915518 20.57865152 96.6134947 17 85 C16.73316406 84.12827148 16.46632813 83.25654297 16.19140625 82.35839844 C11.44109003 67.1357942 5.07691671 51.81333222 -6 40 C-9.26047629 38.36976186 -11.37801035 38.5326465 -15 39 C-17.15981968 40.42646476 -18.90623411 42.0291506 -20.7565918 43.83837891 C-22.8894023 45.89343432 -25.08654412 47.83326343 -27.3203125 49.77734375 C-31.83605087 53.82031678 -36.03992843 58.09198849 -40.22265625 62.4765625 C-41.51584174 63.81942879 -42.80946729 65.16187143 -44.10351562 66.50390625 C-46.10012615 68.57484946 -48.08758667 70.65181286 -50.05297852 72.75244141 C-51.98233548 74.80905839 -53.94219447 76.83194607 -55.91015625 78.8515625 C-56.48854752 79.48470367 -57.06693878 80.11784485 -57.66285706 80.77017212 C-61.76445759 84.90055135 -61.76445759 84.90055135 -65.30123901 85.18522644 C-67.6067928 84.94911409 -69.75157284 84.55569899 -72 84 C-72.71873795 83.84216537 -73.43747589 83.68433075 -74.17799377 83.52171326 C-76.13319498 83.08174826 -78.06408903 82.58046629 -80 82.0625 C-85.64706948 80.59913101 -91.29557625 79.22237652 -97 78 C-93.11250046 73.35187209 -89.08118128 68.93211473 -84.7890625 64.65625 C-84.21723236 64.08346313 -83.64540222 63.51067627 -83.0562439 62.92053223 C-81.85578062 61.71939378 -80.65407505 60.51949574 -79.45117188 59.32080078 C-77.63296563 57.50794221 -75.82015053 55.68981672 -74.0078125 53.87109375 C-68.17558606 48.03511488 -62.32487413 42.30728494 -56 37 C-54.8702432 36.02702841 -53.74132054 35.05308732 -52.61328125 34.078125 C-49.67408475 31.55623812 -46.72742118 29.04311208 -43.78173828 26.52880859 C-42.12592895 25.1080525 -40.48132101 23.67554568 -38.83984375 22.23828125 C-32.61441269 16.82387868 -26.17173246 11.79339717 -19.5 6.9375 C-18.35096191 6.09650757 -18.35096191 6.09650757 -17.17871094 5.23852539 C-6.88319472 -2.15099835 -6.88319472 -2.15099835 0 0 Z " fill="#FDCC00" transform="translate(580,96)"/>
<path d="M0 0 C6.95333388 6.41756611 12.78965458 15.33465723 13.6340332 24.98852539 C14.09987047 41.22972813 12.01773978 51.72270243 0.6484375 63.90234375 C-8.28710138 72.52207357 -20.7090233 75.93112678 -32.85546875 76.27734375 C-47.88346934 75.97958616 -58.91732134 70.51315342 -69.2734375 59.765625 C-78.64709701 48.19778702 -79.58345502 36.22648099 -78.54296875 21.96484375 C-76.50224662 11.10967724 -69.68128074 2.92721658 -60.92578125 -3.46875 C-41.30676655 -16.36583999 -18.27261649 -14.6237069 0 0 Z " fill="#000000" transform="translate(441.54296875,329.03515625)"/>
<path d="M0 0 C1.21798665 3.65395996 0.64929774 4.46347278 -0.7734375 7.9453125 C-3.02529053 13.84117878 -4.43064528 19.68713767 -5.625 25.875 C-5.94247192 27.51770874 -5.94247192 27.51770874 -6.26635742 29.19360352 C-18.32890685 93.81005079 -8.02264616 169.89433815 28 225.375 C35.27005578 236.07511307 35.27005578 236.07511307 43.79296875 245.74609375 C45 247 45 247 45 249 C45.99 249.33 46.98 249.66 48 250 C49.4375 251.49609375 49.4375 251.49609375 51 253.4375 C98.05151481 308.65904772 181.98214578 329.46288451 250 342 C250 342.33 250 342.66 250 343 C226.1388499 346.791409 200.15282175 339.29922813 177 334 C175.49711426 333.65630371 175.49711426 333.65630371 173.96386719 333.30566406 C111.4132904 318.68152175 45.10273964 288.8741393 9.57666016 232.75146484 C-5.26238588 208.57287602 -15.15362518 182.771575 -21 155 C-21.19609863 154.10877441 -21.39219727 153.21754883 -21.59423828 152.29931641 C-27.96027538 122.33261518 -27.42526661 88.8971589 -21 59 C-20.78037598 57.96939453 -20.56075195 56.93878906 -20.33447266 55.87695312 C-17.26396311 41.89124935 -13.1063016 28.37072976 -8 15 C-7.75330566 14.34950684 -7.50661133 13.69901367 -7.25244141 13.02880859 C-3.39790752 2.97805113 -3.39790752 2.97805113 0 0 Z " fill="#F6AD00" transform="translate(120,347)"/>
<path d="M0 0 C0.87011719 0.40089844 1.74023438 0.80179687 2.63671875 1.21484375 C13.91814808 7.17517012 20.79124639 17.95701792 24.6015625 29.8828125 C26.81212522 41.62913598 24.73693613 52.39504299 18.42578125 62.52734375 C10.43218513 73.42770209 0.9051163 80.39556177 -12.47265625 82.68359375 C-26.34647503 84.42050151 -38.35405256 80.60115574 -50 73 C-58.38975925 66.38156471 -64.11620652 57.55499551 -66 47 C-67.29463894 35.25692642 -66.41720806 24.61301812 -59.390625 14.73828125 C-57.69190239 12.69280105 -55.91116469 10.84719265 -54 9 C-53.40445313 8.38382812 -52.80890625 7.76765625 -52.1953125 7.1328125 C-38.71516433 -5.89986187 -16.58307499 -7.74524293 0 0 Z " fill="#000000" transform="translate(655,312)"/>
<path d="M0 0 C4.09591423 0.90973302 7.5826849 2.36122522 11.28125 4.27734375 C11.97412109 4.63223877 12.66699219 4.98713379 13.38085938 5.3527832 C26.34034777 12.14886369 37.57883063 20.89849375 48.80273438 30.21289062 C52.02871598 32.86564747 55.307678 35.44965172 58.59375 38.02734375 C59.17455322 38.48488037 59.75535645 38.94241699 60.35375977 39.41381836 C62.78241721 41.31792932 65.21170182 43.12681163 67.78125 44.83984375 C67.78125 45.49984375 67.78125 46.15984375 67.78125 46.83984375 C66.74871094 47.26652344 65.71617187 47.69320312 64.65234375 48.1328125 C34.3762375 60.9495099 7.749082 79.29578595 -16.84375 100.89453125 C-19.92461918 103.59825955 -23.05882498 106.22905204 -26.21875 108.83984375 C-26.90661991 76.33710852 -27.72738523 28.83107227 -6.21875 1.83984375 C-3.21875 -0.16015625 -3.21875 -0.16015625 0 0 Z " fill="#F49609" transform="translate(208.21875,152.16015625)"/>
<path d="M0 0 C2.21954038 1.93609258 3.38352534 3.46752303 5 6 C5.598125 6.928125 6.19625 7.85625 6.8125 8.8125 C8.63528541 13.70523978 9.13167813 18.17080467 7.15625 23.109375 C1.66196432 32.68725139 -6.70727789 37.67503514 -17 41 C-39.15817167 46.7678538 -64.19002351 47.96703933 -84.9609375 36.9609375 C-90.97776204 33.20423994 -94.8233697 28.75900989 -97 22 C-97.70462478 15.65837694 -96.71081574 11.23508849 -93 6 C-72.2237874 -17.56266935 -24.61183966 -16.86094687 0 0 Z " fill="#C8351B" transform="translate(543,418)"/>
<path d="M0 0 C9.11515181 3.47757617 13.98206043 15.11967347 17.86083984 23.37451172 C25.22050378 40.33675474 33.553805 63.36362279 33 82 C32.30233521 81.45907715 32.30233521 81.45907715 31.59057617 80.90722656 C10.28260777 64.62815883 -13.14701235 53.63475807 -38.67602539 45.80273438 C-40.90394462 45.03317891 -42.92115322 44.10520209 -45 43 C-44.46109131 42.46632812 -43.92218262 41.93265625 -43.36694336 41.3828125 C-40.88773764 38.92460574 -38.41260401 36.46233634 -35.9375 34 C-35.08994141 33.16082031 -34.24238281 32.32164062 -33.36914062 31.45703125 C-28.90375235 27.00888386 -24.59307435 22.50090933 -20.48608398 17.71972656 C-14.68794273 11.00999977 -8.02780376 4.01390188 0 0 Z " fill="#F49709" transform="translate(568,140)"/>
<path d="M0 0 C1.19784759 3.43117219 0.83446843 5.14240198 -0.625 8.4296875 C-0.99842529 9.29553467 -1.37185059 10.16138184 -1.7565918 11.0534668 C-2.37207886 12.45012573 -2.37207886 12.45012573 -3 13.875 C-11.39500819 33.73157401 -16.75816868 53.88395677 -21 75 C-21.15952148 75.78165527 -21.31904297 76.56331055 -21.48339844 77.36865234 C-26.37136151 101.87172372 -28.22957611 127.28544521 -29.31665039 152.2109375 C-29.3491539 152.89278107 -29.38165741 153.57462463 -29.41514587 154.27713013 C-29.50145853 156.10744742 -29.57755183 157.93823873 -29.65283203 159.76904297 C-30.10048456 163.93517064 -30.69326746 167.70209673 -33.734375 170.72265625 C-34.39953125 171.16480469 -35.0646875 171.60695313 -35.75 172.0625 C-38.3207304 173.80837006 -40.76315231 175.60181728 -43.14160156 177.59936523 C-44.08487305 178.39157471 -45.02814453 179.18378418 -46 180 C-46.37283509 158.44248361 -46.01239299 137.39807105 -43 116 C-42.75056641 114.22665283 -42.75056641 114.22665283 -42.49609375 112.41748047 C-37.12449885 75.65687127 -27.36897018 32.05310794 -4 2 C-1.7734375 0.66796875 -1.7734375 0.66796875 0 0 Z " fill="#F6AE00" transform="translate(188,119)"/>
<path d="M0 0 C2.21954038 1.93609258 3.38352534 3.46752303 5 6 C5.598125 6.928125 6.19625 7.85625 6.8125 8.8125 C8.63528541 13.70523978 9.13167813 18.17080467 7.15625 23.109375 C1.66196432 32.68725139 -6.70727789 37.67503514 -17 41 C-39.15817167 46.7678538 -64.19002351 47.96703933 -84.9609375 36.9609375 C-90.97776204 33.20423994 -94.8233697 28.75900989 -97 22 C-97.70462478 15.65837694 -96.71081574 11.23508849 -93 6 C-72.2237874 -17.56266935 -24.61183966 -16.86094687 0 0 Z M-89.0625 9.9375 C-91.33067181 13.52267479 -92 15.76029694 -92 20 C-90.20220999 25.50573189 -86.78319761 28.93511863 -82 32 C-62.43998659 41.713112 -37.16414936 41.50316856 -16.6875 34.75 C-9.15657498 31.90181923 -2.29732308 28.04760984 2 21 C3.21781378 16.81376514 3.43161581 14.88121561 1.5 10.9375 C-9.19984833 -1.63482179 -23.95838061 -4.84235279 -39.81640625 -6.25 C-56.12969282 -6.68000426 -77.45315279 -2.4282636 -89.0625 9.9375 Z " fill="#060300" transform="translate(543,418)"/>
<path d="M0 0 C4.031293 0.15157121 7.839296 0.73630425 11.78393555 1.51098633 C17.64673598 2.6039462 23.49581797 3.53860384 29.41674805 4.25317383 C30.8625581 4.42977438 32.30835874 4.60645196 33.75415039 4.78320312 C34.85131378 4.91727066 34.85131378 4.91727066 35.97064209 5.05404663 C50.08264193 6.80168561 63.93574326 9.18558773 77.8034668 12.33520508 C78.5705899 12.50941986 79.33771301 12.68363464 80.12808228 12.86312866 C87.11116397 14.46104583 94.05101087 16.13980542 100.9284668 18.14770508 C100.4334668 20.62270508 100.4334668 20.62270508 99.9284668 23.14770508 C92.62594002 22.65147466 85.86968001 21.25117599 78.8034668 19.39770508 C68.72028527 16.86443526 58.63362743 14.96715606 48.3659668 13.39770508 C46.42536377 13.10041504 46.42536377 13.10041504 44.44555664 12.79711914 C37.85713242 11.81527526 31.26388864 10.93566117 24.65112305 10.13989258 C18.34464761 9.37580738 12.14219942 8.34165776 5.9284668 7.02270508 C5.04674805 6.84094727 4.1650293 6.65918945 3.2565918 6.47192383 C1.14606576 6.03605432 -0.96292495 5.59275969 -3.0715332 5.14770508 C-3.6340332 3.21020508 -3.6340332 3.21020508 -4.0715332 1.14770508 C-3.0715332 0.14770508 -3.0715332 0.14770508 0 0 Z " fill="#070501" transform="translate(217.071533203125,455.852294921875)"/>
<path d="M0 0 C3.23857278 1.30921027 4.60256422 2.52033613 6.8125 5.1875 C8.94819098 10.24571548 8.6541872 14.34895613 6.6875 19.3125 C3.37637228 24.58577749 3.37637228 24.58577749 -0.05078125 25.6171875 C-5.2590761 26.21087914 -8.52795911 26.12002853 -13 23 C-16.80353586 19.50485893 -17.80946391 16.22557415 -18.16796875 11.21484375 C-17.83523986 6.82746514 -15.31872081 4.17843136 -12.1640625 1.359375 C-8.363653 -1.02788584 -4.33633665 -0.51388405 0 0 Z " fill="#FDFDFD" transform="translate(430,345)"/>
<path d="M0 0 C3.31270724 2.76058937 5.7775607 5.4841708 6.63671875 9.83203125 C6.91876201 14.91853555 5.62858037 17.94854173 2.25 21.875 C-0.72106942 24.28397521 -2.4245346 24.84012871 -6.25 25.25 C-11.16136123 24.72378272 -13.44440654 23.03944822 -17.0625 19.8125 C-19.52834317 15.52010633 -19.52405591 11.71284941 -18.75 6.875 C-17.14306865 3.6611373 -15.80663831 1.70521581 -13 -0.5 C-8.40881734 -1.77532852 -4.36105398 -1.78406754 0 0 Z " fill="#FDFDFD" transform="translate(657.75,336.125)"/>
<path d="M0 0 C8.91 1.485 8.91 1.485 18 3 C17.34 3.33 16.68 3.66 16 4 C16 4.66 16 5.32 16 6 C22.27 6.66 28.54 7.32 35 8 C35 8.33 35 8.66 35 9 C23.17911239 9.37460559 11.55397581 8.29868386 -0.20703125 7.24365234 C-5.79932405 6.75579323 -11.3991001 6.37470809 -17 6 C-17 5.67 -17 5.34 -17 5 C-9.08 4.67 -1.16 4.34 7 4 C4.69 3.01 2.38 2.02 0 1 C0 0.67 0 0.34 0 0 Z " fill="#F9EA01" transform="translate(467,459)"/>
<path d="M0 0 C5.63587931 0.6559794 10.60988342 2.56032841 15.875 4.5625 C16.75414062 4.89185547 17.63328125 5.22121094 18.5390625 5.56054688 C20.69458053 6.36886614 22.84809441 7.18212294 25 8 C24.67 8.66 24.34 9.32 24 10 C24 10.99 24 11.98 24 13 C19.55722452 11.63299216 15.41459077 9.86820698 11.19140625 7.953125 C8.51350184 6.78840365 5.78992415 5.8584382 3 5 C3 3.68 3 2.36 3 1 C2.01 0.67 1.02 0.34 0 0 Z " fill="#F8E702" transform="translate(518,404)"/>
<path d="M0 0 C0.66 0.33 1.32 0.66 2 1 C1.70867187 1.91136719 1.41734375 2.82273438 1.1171875 3.76171875 C-2.48288174 15.11063591 -5.7723408 26.54022191 -9 38 C-9.33 38 -9.66 38 -10 38 C-9.54089371 31.4577354 -8.15254336 25.41216101 -6.28417969 19.14233398 C-5.11441734 15.09074982 -5.11441734 15.09074982 -6 11 C-5.34 10.01 -4.68 9.02 -4 8 C-3.34 8 -2.68 8 -2 8 C-1.855625 7.236875 -1.71125 6.47375 -1.5625 5.6875 C-1 3 -1 3 0 0 Z " fill="#F9EA07" transform="translate(154,166)"/>
<path d="M0 0 C-3.10634686 1.71165117 -6.05714342 2.60739045 -9.5078125 3.40234375 C-10.57773437 3.65306641 -11.64765625 3.90378906 -12.75 4.16210938 C-14.420625 4.54592773 -14.420625 4.54592773 -16.125 4.9375 C-23.83602251 6.71942069 -31.45162193 8.6131149 -39 11 C-39.33 10.34 -39.66 9.68 -40 9 C-39.01 9 -38.02 9 -37 9 C-37 8.34 -37 7.68 -37 7 C-36.09447388 6.82911865 -36.09447388 6.82911865 -35.1706543 6.65478516 C-28.10747932 5.28692874 -21.18027203 3.55386796 -14.23632812 1.6796875 C-9.33203294 0.40722172 -5.06699879 -0.26054933 0 0 Z " fill="#F6EA01" transform="translate(561,241)"/>
<path d="M0 0 C0 0.33 0 0.66 0 1 C-5.97861801 3.10671687 -11.22920521 3.19041926 -17.52734375 2.9765625 C-19.01071983 2.93902359 -19.01071983 2.93902359 -20.52406311 2.90072632 C-23.66224823 2.81898619 -26.79976012 2.72221964 -29.9375 2.625 C-32.07354079 2.56671343 -34.20960869 2.50941121 -36.34570312 2.453125 C-41.56416975 2.31347644 -46.78216667 2.16151018 -52 2 C-52 1.67 -52 1.34 -52 1 C-46.20169761 0.85601891 -40.40335832 0.7136634 -34.60498047 0.57275391 C-32.63621976 0.52468814 -30.66746946 0.47619355 -28.69873047 0.42724609 C-25.8538681 0.35659315 -23.0089707 0.28752985 -20.1640625 0.21875 C-18.86343369 0.18593933 -18.86343369 0.18593933 -17.53652954 0.15246582 C-11.68995197 0.01313644 -5.84814573 -0.02457409 0 0 Z " fill="#E67427" transform="translate(551,474)"/>
<path d="M0 0 C9.16191918 0.56291453 18.01728306 2.20796488 27 4 C27 4.33 27 4.66 27 5 C24.56304285 5.22181406 22.126474 5.42791119 19.6875 5.625 C18.65206055 5.72167969 18.65206055 5.72167969 17.59570312 5.8203125 C13.7440028 6.11802847 12.31145584 6.20763723 9 4 C7.824375 3.855625 6.64875 3.71125 5.4375 3.5625 C4.303125 3.376875 3.16875 3.19125 2 3 C1.34 2.01 0.68 1.02 0 0 Z " fill="#F2A601" transform="translate(343,685)"/>
<path d="M0 0 C5.38092281 4.70437404 8.43266196 13.00283083 9 20 C6.36 18.68 3.72 17.36 1 16 C1.33 15.236875 1.66 14.47375 2 13.6875 C3.17436686 11.00930865 3.17436686 11.00930865 3 8 C2.01642648 5.99187074 1.01691264 3.99145391 0 2 C0 1.34 0 0.68 0 0 Z " fill="#F9E103" transform="translate(439,281)"/>
<path d="M0 0 C0.33 0.66 0.66 1.32 1 2 C0.54625 2.7425 0.0925 3.485 -0.375 4.25 C-2.17338818 6.89958034 -2.17338818 6.89958034 -2.4375 9.9375 C-3.13342579 13.72642929 -4.63641564 15.99180172 -7 19 C-7.66 19 -8.32 19 -9 19 C-9.66 20.32 -10.32 21.64 -11 23 C-10.42151556 17.83496032 -7.94367079 13.73636773 -5.5 9.25 C-5.08363281 8.47011719 -4.66726562 7.69023437 -4.23828125 6.88671875 C-1.16171288 1.16171288 -1.16171288 1.16171288 0 0 Z " fill="#FAD701" transform="translate(129,328)"/>
<path d="M0 0 C0.33 0 0.66 0 1 0 C1.02929977 3.35414799 1.0468989 6.70826253 1.0625 10.0625 C1.07087891 11.00544922 1.07925781 11.94839844 1.08789062 12.91992188 C1.10581103 18.0630768 0.89259611 22.93258427 0 28 C-0.33 28 -0.66 28 -1 28 C-1.99849626 18.24442163 -1.97533115 9.68075512 0 0 Z " fill="#EAA407" transform="translate(185,209)"/>
<path d="M0 0 C0.80824219 0.28746094 1.61648438 0.57492187 2.44921875 0.87109375 C3.06410156 1.09925781 3.67898438 1.32742188 4.3125 1.5625 C3.9825 2.2225 3.6525 2.8825 3.3125 3.5625 C3.3125 4.5525 3.3125 5.5425 3.3125 6.5625 C-0.583231 5.41148857 -3.63137711 4.27905368 -6.6875 1.5625 C-7.0175 0.9025 -7.3475 0.2425 -7.6875 -0.4375 C-4.20878379 -1.59707207 -3.34530355 -1.21206651 0 0 Z " fill="#FAE402" transform="translate(538.6875,410.4375)"/>
<path d="M0 0 C1.10865985 0.91122727 2.21172219 1.82926659 3.3125 2.75 C4.23482422 3.51570312 4.23482422 3.51570312 5.17578125 4.296875 C7 6 7 6 10 10 C-1.385 9.505 -1.385 9.505 -13 9 C-13 8.67 -13 8.34 -13 8 C-7.06 7.67 -1.12 7.34 5 7 C3.35 5.35 1.7 3.7 0 2 C0 1.34 0 0.68 0 0 Z " fill="#FBF202" transform="translate(601,230)"/>
<path d="M0 0 C4.62 0 9.24 0 14 0 C14 0.99 14 1.98 14 3 C14.9075 3.103125 15.815 3.20625 16.75 3.3125 C20.01961575 4.00414949 21.53717737 4.82134921 24 7 C18.99033162 6.09763737 14.10251069 4.74597041 9.1875 3.4375 C8.30384766 3.20353516 7.42019531 2.96957031 6.50976562 2.72851562 C4.33948439 2.15368438 2.16957958 1.57747279 0 1 C0 0.67 0 0.34 0 0 Z " fill="#F8E801" transform="translate(386,242)"/>
<path d="M0 0 C1.05445313 -0.01417969 2.10890625 -0.02835937 3.1953125 -0.04296875 C5.875 0.1875 5.875 0.1875 7.875 2.1875 C6.73160156 2.23648437 5.58820312 2.28546875 4.41015625 2.3359375 C2.91924527 2.41095189 1.42836108 2.48650028 -0.0625 2.5625 C-1.19461914 2.60890625 -1.19461914 2.60890625 -2.34960938 2.65625 C-4.28007395 2.7601315 -6.20442081 2.96645614 -8.125 3.1875 C-8.455 3.8475 -8.785 4.5075 -9.125 5.1875 C-9.785 5.1875 -10.445 5.1875 -11.125 5.1875 C-10.795 3.8675 -10.465 2.5475 -10.125 1.1875 C-6.71740374 0.15863639 -3.5507762 0.02181066 0 0 Z " fill="#FCDC03" transform="translate(704.125,460.8125)"/>
<path d="M0 0 C4.17004797 1.39498921 6.837108 3.3463358 10.0625 6.3125 C10.89910156 7.07175781 11.73570312 7.83101563 12.59765625 8.61328125 C14.94679116 10.94713724 16.98736589 13.37381461 19 16 C14.72164052 14.17050107 12.21084215 11.2419446 9.09765625 7.875 C6.82257527 5.84140806 4.83857306 5.04751296 2 4 C1.34 3.34 0.68 2.68 0 2 C0 1.34 0 0.68 0 0 Z " fill="#F9EB02" transform="translate(417,260)"/>
<path d="M0 0 C5.34812435 0.54852557 10.40360054 2.19377717 15 5 C15.33 5.99 15.66 6.98 16 8 C18.00016466 9.20882096 18.00016466 9.20882096 20 10 C15.96673935 10 13.3706483 8.12114213 10 6.125 C9.3709375 5.76019531 8.741875 5.39539063 8.09375 5.01953125 C5.34138598 3.41592933 2.6510494 1.76736627 0 0 Z " fill="#F9E702" transform="translate(648,248)"/>
<path d="M0 0 C2.72039409 2.72039409 2.84801128 5.06490287 3.625 8.8125 C3.88539063 10.03582031 4.14578125 11.25914062 4.4140625 12.51953125 C4.90702404 15.4477228 5.12382257 18.04514312 5 21 C3.35 19.35 1.7 17.7 0 16 C0.66 16 1.32 16 2 16 C1.855625 15.26394531 1.71125 14.52789062 1.5625 13.76953125 C1.376875 12.79371094 1.19125 11.81789062 1 10.8125 C0.814375 9.84957031 0.62875 8.88664063 0.4375 7.89453125 C0.03122388 5.2065794 -0.07933572 2.71228981 0 0 Z " fill="#E7B709" transform="translate(596,201)"/>
<path d="M0 0 C-0.66 2.31 -1.32 4.62 -2 7 C-2.99 6.34 -3.98 5.68 -5 5 C-5 4.01 -5 3.02 -5 2 C-8.96 2 -12.92 2 -17 2 C-17 1.67 -17 1.34 -17 1 C-15.10440036 0.83069605 -13.20850769 0.66467136 -11.3125 0.5 C-10.25675781 0.4071875 -9.20101563 0.314375 -8.11328125 0.21875 C-5.39363975 0.0276585 -2.72460144 -0.04043935 0 0 Z " fill="#FAEC03" transform="translate(295,509)"/>
<path d="M0 0 C3 1 3 1 4.1875 3.0625 C4.455625 3.701875 4.72375 4.34125 5 5 C1.52176885 6.15941038 -0.45895578 5.70820884 -4 5 C-2.68 3.35 -1.36 1.7 0 0 Z " fill="#F5CF02" transform="translate(517,403)"/>
<path d="M0 0 C1.134375 0.020625 2.26875 0.04125 3.4375 0.0625 C2.4475 1.5475 2.4475 1.5475 1.4375 3.0625 C-0.44189453 3.40307617 -0.44189453 3.40307617 -2.6953125 3.35546875 C-3.50097656 3.34580078 -4.30664062 3.33613281 -5.13671875 3.32617188 C-5.97847656 3.30103516 -6.82023438 3.27589844 -7.6875 3.25 C-8.53699219 3.23646484 -9.38648438 3.22292969 -10.26171875 3.20898438 C-12.36224837 3.17358219 -14.46245293 3.11977401 -16.5625 3.0625 C-16.5625 2.7325 -16.5625 2.4025 -16.5625 2.0625 C-15.70785156 2.00191406 -14.85320313 1.94132813 -13.97265625 1.87890625 C-12.31556641 1.75322266 -12.31556641 1.75322266 -10.625 1.625 C-9.52285156 1.54378906 -8.42070313 1.46257812 -7.28515625 1.37890625 C-3.70309481 0.96262651 -3.91990531 0.06877027 0 0 Z " fill="#F2C000" transform="translate(600.5625,244.9375)"/>
<path d="M0 0 C3.3 0.33 6.6 0.66 10 1 C10.33 1.99 10.66 2.98 11 4 C6.83861737 4.08159574 3.0527516 3.98248524 -1 3 C-0.67 2.01 -0.34 1.02 0 0 Z " fill="#F3D106" transform="translate(348,695)"/>
<path d="M0 0 C0.33 0 0.66 0 1 0 C1.33 4.29 1.66 8.58 2 13 C1.34 11.68 0.68 10.36 0 9 C-0.98879205 7.32665961 -1.98648336 5.65848177 -3 4 C-2.02727325 2.64664105 -1.0260734 1.31337396 0 0 Z " fill="#F5D902" transform="translate(91,489)"/>
<path d="M0 0 C-0.33 1.98 -0.66 3.96 -1 6 C-4.465 4.02 -4.465 4.02 -8 2 C-8 1.67 -8 1.34 -8 1 C-5.23735711 0.40267181 -2.83967231 0 0 0 Z " fill="#F5E709" transform="translate(688,464)"/>
<path d="M0 0 C0.33 0 0.66 0 1 0 C1 4.29 1 8.58 1 13 C0.34 13 -0.32 13 -1 13 C-1.33 13.66 -1.66 14.32 -2 15 C-2.22577402 9.5814234 -1.46670113 5.22512279 0 0 Z " fill="#F7D501" transform="translate(150,208)"/>
<path d="M0 0 C1.24153433 3.724603 0.47452539 4.47752269 -1 8 C-1.165 9.051875 -1.33 10.10375 -1.5 11.1875 C-2 14 -2 14 -4 16 C-3.6083965 10.04492601 -2.62875405 5.37180176 0 0 Z " fill="#D36C24" transform="translate(300,512)"/>
<path d="M0 0 C5 6.66666667 5 6.66666667 5 11 C4.01 10.67 3.02 10.34 2 10 C1.34 6.7 0.68 3.4 0 0 Z " fill="#FBE207" transform="translate(112,561)"/>
<path d="M0 0 C-3.07692746 2.6815279 -5.19734663 3.42087807 -9.25 3.6875 C-10.14203125 3.75324219 -11.0340625 3.81898438 -11.953125 3.88671875 C-12.62859375 3.92410156 -13.3040625 3.96148437 -14 4 C-10.28835785 0.28835785 -5.09745779 -0.30893684 0 0 Z " fill="#FBEE01" transform="translate(544,252)"/>
<path d="M0 0 C0.99 0.33 1.98 0.66 3 1 C1.02 3.97 -0.96 6.94 -3 10 C-3.33 9.34 -3.66 8.68 -4 8 C-3 6.33333333 -2 4.66666667 -1 3 C-1.33 2.34 -1.66 1.68 -2 1 C-1.34 0.67 -0.68 0.34 0 0 Z " fill="#F0E503" transform="translate(645,565)"/>
<path d="M0 0 C0 0.66 0 1.32 0 2 C-0.969375 2.12375 -1.93875 2.2475 -2.9375 2.375 C-3.948125 2.58125 -4.95875 2.7875 -6 3 C-6.33 3.66 -6.66 4.32 -7 5 C-7.66 5 -8.32 5 -9 5 C-8.67 3.68 -8.34 2.36 -8 1 C-5.10765685 0.17361624 -3.11257569 0 0 0 Z " fill="#E7D808" transform="translate(702,461)"/>
<path d="M0 0 C0.598125 0.350625 1.19625 0.70125 1.8125 1.0625 C1.1525 1.0625 0.4925 1.0625 -0.1875 1.0625 C0.1425 2.3825 0.4725 3.7025 0.8125 5.0625 C-1.625 4.25 -1.625 4.25 -4.1875 3.0625 C-4.5175 2.0725 -4.8475 1.0825 -5.1875 0.0625 C-2.1875 -0.9375 -2.1875 -0.9375 0 0 Z " fill="#E6CA02" transform="translate(536.1875,409.9375)"/>
<path d="M0 0 C0.33 0.66 0.66 1.32 1 2 C1.66 2 2.32 2 3 2 C3.6875 3.8125 3.6875 3.8125 4 6 C3.01 6.99 2.02 7.98 1 9 C0.67 6.03 0.34 3.06 0 0 Z " fill="#F6DE06" transform="translate(692,403)"/>
<path d="M0 0 C0 0.66 0 1.32 0 2 C-3.57644848 3.2380014 -6.33694766 2.74926071 -10 2 C-6.3558226 -0.4294516 -4.28758728 -0.16179575 0 0 Z " fill="#EBD107" transform="translate(709,498)"/>
</svg>
